<svg width="48" height="58" viewBox="0 0 48 58" fill="none" xmlns="http://www.w3.org/2000/svg">
<path d="M6.98117 46.3997H48V0H6.86796C5.04827 0.00624475 3.30477 0.780574 2.01804 2.15397C0.731316 3.52736 0.00585068 5.38829 0 7.33055V50.0549H0.00124546C0.00124546 50.0731 0 50.0911 0 50.1096C0 54.3871 3.14513 58 6.86796 58H48V54.133H6.86796C5.16951 54.133 3.62264 52.2153 3.62264 50.1093C3.62264 48.0986 5.16057 46.3997 6.98117 46.3997ZM36.2264 3.90688V24.7887L30.7472 19.6545L25.3585 24.7586V3.90688H36.2264ZM21.7358 3.86664V29.9665H25.3178L30.7603 24.8119L36.2609 29.9665H39.8491V3.86664H44.3774V42.5331H10.877L10.8679 3.86664H21.7358ZM6.86796 3.86664H7.24528L7.25389 42.5331H6.98072C5.80278 42.5333 4.64528 42.8616 3.62264 43.4856V7.36076C3.61987 6.43838 3.96 5.5525 4.5684 4.89745C5.1768 4.24241 6.0038 3.87169 6.86796 3.86664Z" fill="white"/>
</svg>
