<svg width="56" height="58" viewBox="0 0 56 58" fill="none" xmlns="http://www.w3.org/2000/svg">
<path d="M52 0H4C2.93946 0.00109677 1.92266 0.437927 1.17274 1.21463C0.422826 1.99132 0.00105895 3.04444 0 4.14286V53.8571C0.00105895 54.9556 0.422826 56.0087 1.17274 56.7854C1.92266 57.5621 2.93946 57.9989 4 58H52C53.0604 57.9984 54.0769 57.5614 54.8267 56.7848C55.5765 56.0082 55.9984 54.9554 56 53.8571V4.14286C55.9989 3.04444 55.5772 1.99132 54.8273 1.21463C54.0773 0.437927 53.0605 0.00109677 52 0ZM52 18.6429H24V4.14286H52V18.6429ZM20 4.14286V18.6429H4V4.14286H20ZM4 53.8571V22.7857H52L52.004 53.8571H4Z" fill="white"/>
</svg>
