<svg width="58" height="58" viewBox="0 0 58 58" fill="none" xmlns="http://www.w3.org/2000/svg">
<path d="M57.8373 49.5462L55.4561 40.3482L45.96 3.52654C45.6441 2.30691 44.8742 1.26741 43.8197 0.63663C42.7653 0.00584919 41.5125 -0.16456 40.3369 0.162875L31.472 2.63353L31.1851 2.72283C30.7575 2.1408 30.2063 1.66885 29.5744 1.34362C28.9426 1.01839 28.2469 0.84863 27.5416 0.847514H18.361C17.5534 0.849767 16.7611 1.07585 16.0659 1.50239C15.3708 1.07585 14.5784 0.849767 13.7708 0.847514H4.59026C3.37285 0.847514 2.2053 1.3493 1.34446 2.24248C0.483615 3.13566 0 4.34707 0 5.61022V53.2373C0 54.5004 0.483615 55.7118 1.34446 56.605C2.2053 57.4982 3.37285 58 4.59026 58H13.7708C14.5784 57.9977 15.3708 57.7717 16.0659 57.3451C16.7611 57.7717 17.5534 57.9977 18.361 58H27.5416C28.759 58 29.9265 57.4982 30.7874 56.605C31.6482 55.7118 32.1318 54.5004 32.1318 53.2373V23.5894L37.7262 45.2598L40.1074 54.4577C40.3673 55.4749 40.9446 56.3742 41.7491 57.015C42.5536 57.6559 43.54 58.0022 44.5542 58C44.9502 57.9928 45.3444 57.943 45.7305 57.8512L54.5954 55.3805C55.1786 55.218 55.7249 54.937 56.2026 54.5538C56.6803 54.1705 57.0799 53.6927 57.3783 53.148C57.6842 52.6105 57.8825 52.0145 57.9614 51.3956C58.0402 50.7767 57.998 50.1477 57.8373 49.5462ZM35.6319 18.7374L44.4969 16.2668L50.4355 39.2766L41.5706 41.7473L35.6319 18.7374ZM41.5132 4.77675L43.3206 11.6529L34.4557 14.1236L32.6482 7.2474L41.5132 4.77675ZM27.5416 5.61022V41.3305H18.361V5.61022H27.5416ZM13.7708 5.61022V12.7543H4.59026V5.61022H13.7708ZM4.59026 53.2373V17.517H13.7708V53.2373H4.59026ZM27.5416 53.2373H18.361V46.0932H27.5416V53.2373ZM53.4192 50.7666L44.5542 53.2373L42.7468 46.3314L51.6404 43.8607L53.4192 50.7666Z" fill="white"/>
</svg>
