<svg width="70" height="68" viewBox="0 0 70 68" fill="none" xmlns="http://www.w3.org/2000/svg">
<path d="M48.9835 41.3197L48.9835 41.3198L50.7882 56.1793C50.7882 56.1793 50.7882 56.1794 50.7882 56.1794C50.9289 57.3373 50.8286 58.5133 50.4933 59.6303C50.1578 60.7474 49.5938 61.7833 48.8346 62.6675C48.0752 63.552 47.1373 64.2652 46.0804 64.7553C45.0234 65.2455 43.874 65.5002 42.7092 65.5C42.709 65.5 42.7088 65.5 42.7086 65.5H27.2927H27.2908V63L48.9835 41.3197ZM48.9835 41.3197C48.6566 38.6288 47.3836 36.1393 45.3852 34.3256L43.7291 36.1504M48.9835 41.3197L43.7291 36.1504M43.7291 36.1504L45.3852 34.3256C43.3852 32.5104 40.7968 31.4992 38.1046 31.5C38.1044 31.5 38.1043 31.5 38.1042 31.5C38.104 31.5 38.1038 31.5 38.1036 31.5L31.8898 31.5L31.8891 31.5M43.7291 36.1504L31.8891 31.5M31.8891 31.5C29.1978 31.5008 26.6108 32.5128 24.6121 34.328M31.8891 31.5L24.6121 34.328M24.6121 34.328C22.6153 36.1415 21.3434 38.6299 21.0166 41.3193M24.6121 34.328L21.0166 41.3193M21.0166 41.3193C21.0165 41.3194 21.0165 41.3195 21.0165 41.3197L21.0166 41.3193Z" stroke="white" stroke-width="5" stroke-linecap="round" stroke-linejoin="round"/>
<path d="M35 24.9C41.1183 24.9 45.9592 19.819 45.9592 13.7C45.9592 7.58101 41.1183 2.5 35 2.5C28.8817 2.5 24.0407 7.58101 24.0407 13.7C24.0407 19.819 28.8817 24.9 35 24.9Z" stroke="white" stroke-width="5"/>
<path d="M12.4419 33.6C17.0029 33.6 20.5814 29.8174 20.5814 25.3C20.5814 20.7826 17.0029 17 12.4419 17C7.88094 17 4.30243 20.7826 4.30243 25.3C4.30243 29.8174 7.88094 33.6 12.4419 33.6Z" stroke="white" stroke-width="5"/>
<path d="M57.5579 33.6C62.1189 33.6 65.6974 29.8174 65.6974 25.3C65.6974 20.7826 62.1189 17 57.5579 17C52.9969 17 49.4184 20.7826 49.4184 25.3C49.4184 29.8174 52.9969 33.6 57.5579 33.6Z" stroke="white" stroke-width="5"/>
<mask id="path-5-outside-1_8_8" maskUnits="userSpaceOnUse" x="0" y="34.8" width="70" height="28" fill="black">
<rect fill="white" y="34.8" width="70" height="28"/>
<path d="M12.442 39.8H11.5792C10.2442 39.7998 8.95244 40.2867 7.93373 41.1741C6.91502 42.0614 6.23541 43.2916 6.0158 44.6459L5.07683 50.4459C4.94208 51.2769 4.98496 52.1281 5.2025 52.9403C5.42004 53.7525 5.807 54.5062 6.33649 55.149C6.86597 55.7918 7.52525 56.3083 8.26848 56.6625C9.01171 57.0167 9.82105 57.2001 10.6402 57.2H20.9013M57.558 39.8H58.4208C59.7558 39.7998 61.0476 40.2867 62.0663 41.1741C63.085 42.0614 63.7646 43.2916 63.9842 44.6459L64.9232 50.4459C65.0579 51.2769 65.015 52.1281 64.7975 52.9403C64.58 53.7525 64.193 54.5062 63.6635 55.149C63.134 55.7918 62.4747 56.3083 61.7315 56.6625C60.9883 57.0167 60.179 57.2001 59.3598 57.2H49.0987"/>
</mask>
<path d="M12.442 44.8C15.2034 44.8 17.442 42.5614 17.442 39.8C17.442 37.0386 15.2034 34.8 12.442 34.8V44.8ZM11.5792 39.8L11.5785 44.8H11.5792V39.8ZM6.0158 44.6459L1.08027 43.8456L1.08007 43.8468L6.0158 44.6459ZM5.07683 50.4459L10.0124 51.2462L10.0126 51.245L5.07683 50.4459ZM10.6402 57.2V52.2L10.6396 52.2L10.6402 57.2ZM20.9013 62.2C23.6627 62.2 25.9013 59.9614 25.9013 57.2C25.9013 54.4386 23.6627 52.2 20.9013 52.2V62.2ZM57.558 34.8C54.7966 34.8 52.558 37.0386 52.558 39.8C52.558 42.5614 54.7966 44.8 57.558 44.8V34.8ZM58.4208 39.8V44.8H58.4215L58.4208 39.8ZM63.9842 44.6459L68.9199 43.8468L68.9197 43.8456L63.9842 44.6459ZM64.9232 50.4459L59.9874 51.245L59.9876 51.2462L64.9232 50.4459ZM59.3598 57.2L59.3604 52.2H59.3598V57.2ZM49.0987 52.2C46.3373 52.2 44.0987 54.4386 44.0987 57.2C44.0987 59.9614 46.3373 62.2 49.0987 62.2V52.2ZM12.442 34.8H11.5792V44.8H12.442V34.8ZM11.5798 34.8C9.02153 34.7997 6.56687 35.7338 4.64968 37.4038L11.2178 44.9443C11.338 44.8396 11.4669 44.8 11.5785 44.8L11.5798 34.8ZM4.64968 37.4038C2.73579 39.0708 1.48358 41.3584 1.08027 43.8456L10.9513 45.4462C10.9872 45.2248 11.0942 45.052 11.2178 44.9443L4.64968 37.4038ZM1.08007 43.8468L0.141089 49.6468L10.0126 51.245L10.9515 45.445L1.08007 43.8468ZM0.141295 49.6456C-0.106435 51.1733 -0.0278678 52.7382 0.372733 54.2339L10.0323 51.6467C9.99779 51.518 9.99059 51.3805 10.0124 51.2462L0.141295 49.6456ZM0.372733 54.2339C0.773396 55.7298 1.48862 57.1278 2.47716 58.328L10.1958 51.9701C10.1254 51.8846 10.0667 51.7752 10.0323 51.6467L0.372733 54.2339ZM2.47716 58.328C3.46607 59.5285 4.70621 60.5036 6.11745 61.1761L10.4195 52.1488C10.3443 52.113 10.2659 52.0551 10.1958 51.9701L2.47716 58.328ZM6.11745 61.1761C7.5292 61.8489 9.07327 62.2002 10.6408 62.2L10.6396 52.2C10.5688 52.2 10.4942 52.1844 10.4195 52.1488L6.11745 61.1761ZM10.6402 62.2H20.9013V52.2H10.6402V62.2ZM57.558 44.8H58.4208V34.8H57.558V44.8ZM58.4215 44.8C58.5331 44.8 58.662 44.8396 58.7822 44.9443L65.3503 37.4038C63.4331 35.7338 60.9785 34.7997 58.4202 34.8L58.4215 44.8ZM58.7822 44.9443C58.9058 45.0519 59.0128 45.2248 59.0487 45.4462L68.9197 43.8456C68.5164 41.3584 67.2642 39.0709 65.3503 37.4038L58.7822 44.9443ZM59.0485 45.445L59.9874 51.245L69.8589 49.6468L68.9199 43.8468L59.0485 45.445ZM59.9876 51.2462C60.0094 51.3805 60.0022 51.518 59.9677 51.6467L69.6273 54.2339C70.0279 52.7382 70.1064 51.1733 69.8587 49.6456L59.9876 51.2462ZM59.9677 51.6467C59.9333 51.7752 59.8746 51.8846 59.8042 51.9701L67.5228 58.328C68.5114 57.1278 69.2266 55.7298 69.6273 54.2339L59.9677 51.6467ZM59.8042 51.9701C59.7341 52.0551 59.6557 52.113 59.5805 52.1488L63.8825 61.1761C65.2938 60.5036 66.5339 59.5285 67.5228 58.328L59.8042 51.9701ZM59.5805 52.1488C59.5058 52.1844 59.4312 52.2 59.3604 52.2L59.3592 62.2C60.9267 62.2002 62.4708 61.8489 63.8825 61.1761L59.5805 52.1488ZM59.3598 52.2H49.0987V62.2H59.3598V52.2Z" fill="white" mask="url(#path-5-outside-1_8_8)"/>
</svg>
