<svg width="64" height="58" viewBox="0 0 64 58" fill="none" xmlns="http://www.w3.org/2000/svg">
<path d="M15.2593 34.2011C14.9278 33.8497 14.6648 33.4321 14.4853 32.9723C14.3059 32.5125 14.2135 32.0196 14.2135 31.5217C14.2135 31.0239 14.3059 30.5309 14.4853 30.0712C14.6648 29.6114 14.9278 29.1938 15.2593 28.8424L22.3704 21.2772C23.0383 20.5666 23.9443 20.1674 24.8889 20.1674C25.8335 20.1674 26.7395 20.5666 27.4074 21.2772C28.0754 21.9878 28.4506 22.9516 28.4506 23.9565C28.4506 24.9615 28.0754 25.9253 27.4074 26.6359L26.3704 27.7391H42.6667V21.4348C42.6667 20.4316 43.0413 19.4695 43.7081 18.7601C44.3749 18.0507 45.2792 17.6522 46.2222 17.6522C47.1652 17.6522 48.0696 18.0507 48.7364 18.7601C49.4032 19.4695 49.7778 20.4316 49.7778 21.4348V31.5217C49.7778 32.525 49.4032 33.4871 48.7364 34.1964C48.0696 34.9058 47.1652 35.3043 46.2222 35.3043H26.3704L27.4074 36.4076C27.7389 36.759 28.0019 37.1766 28.1813 37.6364C28.3608 38.0962 28.4532 38.5891 28.4532 39.087C28.4532 39.5848 28.3608 40.0778 28.1813 40.5375C28.0019 40.9973 27.7389 41.4149 27.4074 41.7663C26.7364 42.4709 25.8316 42.8659 24.8889 42.8659C23.9461 42.8659 23.0413 42.4709 22.3704 41.7663L15.2593 34.2011ZM64 6.30435V51.6957C63.9922 53.3651 63.3654 54.9638 62.2557 56.1443C61.1461 57.3249 59.6433 57.9917 58.0741 58H5.92593C4.35667 57.9917 2.85391 57.3249 1.74427 56.1443C0.634625 54.9638 0.007788 53.3651 0 51.6957V6.30435C0.007788 4.63488 0.634625 3.03616 1.74427 1.85566C2.85391 0.675152 4.35667 0.00828533 5.92593 0H58.0741C59.6433 0.00828533 61.1461 0.675152 62.2557 1.85566C63.3654 3.03616 63.9922 4.63488 64 6.30435ZM56.8889 7.56522H7.11111V50.4348H56.8889V7.56522Z" fill="white"/>
</svg>
